<?xml version="1.0" standalone="no"?>
<!DOCTYPE svg PUBLIC "-//W3C//DTD SVG 20010904//EN"
 "http://www.w3.org/TR/2001/REC-SVG-20010904/DTD/svg10.dtd">
<svg version="1.0" xmlns="http://www.w3.org/2000/svg"
 width="930.000000pt" height="930.000000pt" viewBox="0 0 930.000000 930.000000"
 preserveAspectRatio="xMidYMid meet">
<metadata>
Created by potrace 1.14, written by Peter Selinger 2001-2017
</metadata>
<g transform="translate(0.000000,930.000000) scale(0.100000,-0.100000)"
fill="#000000" stroke="none">
<path d="M7094 9214 c-44 -48 -84 -92 -89 -98 -6 -6 -123 -137 -260 -291 -137
-154 -254 -285 -260 -291 -5 -6 -41 -46 -80 -89 -137 -154 -169 -190 -179
-201 -6 -6 -42 -46 -81 -90 -78 -87 -153 -171 -201 -224 -17 -19 -93 -105
-169 -190 -76 -85 -171 -191 -210 -235 -40 -44 -92 -102 -116 -129 -76 -86
-319 -358 -394 -441 -39 -44 -134 -150 -210 -235 -75 -85 -154 -173 -174 -195
-20 -22 -131 -146 -246 -275 -115 -129 -214 -240 -220 -246 -5 -6 -41 -46 -80
-90 -80 -89 -138 -154 -246 -275 -42 -46 -99 -110 -127 -142 l-52 -57 -1 187
c0 104 0 515 0 915 l2 727 -49 -52 c-27 -28 -66 -72 -88 -96 -21 -24 -52 -58
-69 -75 -70 -76 -221 -240 -238 -260 -10 -12 -51 -55 -90 -96 -79 -84 -345
-364 -398 -421 -66 -71 -294 -313 -327 -347 -28 -30 -128 -142 -211 -238 -209
-242 -301 -441 -325 -704 -4 -39 -8 -3622 -6 -4932 l0 -28 99 0 98 0 94 101
c52 56 107 116 122 133 75 81 283 302 378 401 172 180 336 352 465 491 324
350 466 565 513 779 22 100 23 140 26 748 2 340 5 620 7 622 4 5 7 2 153 -131
55 -49 197 -177 315 -284 118 -106 235 -212 260 -234 25 -23 187 -169 360
-325 282 -254 362 -327 544 -492 178 -161 623 -564 801 -724 116 -104 228
-206 250 -226 22 -21 51 -47 65 -59 14 -12 63 -57 110 -99 243 -222 301 -270
356 -290 135 -51 324 -2 422 108 34 39 81 139 91 196 8 45 15 101 26 214 6 54
6 308 0 371 -40 443 -190 881 -453 1315 -118 197 -162 259 -388 559 -17 22
-80 97 -139 166 -305 356 -669 712 -1128 1103 l-117 101 28 30 c16 17 53 58
84 91 30 33 68 74 83 90 14 17 50 55 79 85 28 30 98 107 156 170 57 63 107
117 110 120 3 3 39 43 80 90 41 47 77 87 80 90 12 12 231 271 291 345 496 610
795 1184 973 1875 63 245 123 570 151 830 2 19 7 64 11 100 4 36 8 76 10 89 1
14 5 59 9 100 3 42 8 96 10 121 4 39 8 106 20 310 2 25 4 83 5 130 l3 85 -120
3 -121 3 -78 -87z"/>
</g>
</svg>
